<?xml version="1.0" encoding="UTF-8"?>
<svg id="Capa_2" data-name="Capa 2" xmlns="http://www.w3.org/2000/svg" viewBox="0 0 46.56 47.03">
  <defs>
    <style>
      .cls-1 {
        fill: #fff;
      }
    </style>
  </defs>
  <path class="cls-1" d="M32.22,47.03c-5.09,0-12-1.84-20.51-10.35C.21,25.18-.8,16.23.38,10.74,1.34,6.27,7.99.49,8.27.24l.28-.24,11.06,11.06-6.88,6.88c.19.84,1.24,4.39,5.83,9.64,4.67,5.35,9.26,6.41,10.22,6.58l6.73-6.81,11.04,11.46-.23.28c-.23.28-5.8,6.95-10.6,7.67-1.05.16-2.23.28-3.52.28ZM8.52,1.1C7.24,2.25,1.96,7.19,1.16,10.91c-1.13,5.29-.13,13.96,11.11,25.2,10.41,10.41,18.31,10.61,23.34,9.85,3.97-.6,8.77-5.85,9.87-7.12l-9.97-10.34-6.43,6.51-.19-.02c-.22-.02-5.47-.64-10.93-6.88-5.43-6.21-6.03-10.09-6.06-10.25l-.03-.2,6.6-6.6L8.52,1.1Z"/>
  <path class="cls-1" d="M36.79,22.67h-.8c0-6.32-5.14-11.47-11.47-11.47v-.8c6.77,0,12.27,5.5,12.27,12.27Z"/>
  <path class="cls-1" d="M44.86,21.25h-.8c0-10.14-8.25-18.39-18.39-18.39v-.8c10.58,0,19.19,8.61,19.19,19.19Z"/>
</svg>